<?xml version="1.0" encoding="UTF-8" standalone="no"?>
<!-- Created with Inkscape (http://www.inkscape.org/) -->

<svg
   xmlns:dc="http://purl.org/dc/elements/1.1/"
   xmlns:cc="http://creativecommons.org/ns#"
   xmlns:rdf="http://www.w3.org/1999/02/22-rdf-syntax-ns#"
   xmlns:svg="http://www.w3.org/2000/svg"
   xmlns="http://www.w3.org/2000/svg"
   xmlns:sodipodi="http://sodipodi.sourceforge.net/DTD/sodipodi-0.dtd"
   xmlns:inkscape="http://www.inkscape.org/namespaces/inkscape"
   version="1.1"
   id="svg5076"
   width="11.525434"
   height="10.84747"
   viewBox="0 0 11.525434 10.84747"
   sodipodi:docname="1.svg"
   inkscape:version="0.92.1 r15371">
  <metadata
     id="metadata5082">
    <rdf:RDF>
      <cc:Work
         rdf:about="">
        <dc:format>image/svg+xml</dc:format>
        <dc:type
           rdf:resource="http://purl.org/dc/dcmitype/StillImage" />
        <dc:title></dc:title>
      </cc:Work>
    </rdf:RDF>
  </metadata>
  <defs
     id="defs5080" />
  <sodipodi:namedview
     pagecolor="#ffffff"
     bordercolor="#666666"
     borderopacity="1"
     objecttolerance="10"
     gridtolerance="10"
     guidetolerance="10"
     inkscape:pageopacity="0"
     inkscape:pageshadow="2"
     inkscape:window-width="1321"
     inkscape:window-height="692"
     id="namedview5078"
     showgrid="false"
     inkscape:zoom="2.95"
     inkscape:cx="98.454873"
     inkscape:cy="72.888863"
     inkscape:window-x="0"
     inkscape:window-y="0"
     inkscape:window-maximized="0"
     inkscape:current-layer="svg5076"
     fit-margin-top="0"
     fit-margin-left="0"
     fit-margin-right="0"
     fit-margin-bottom="0" />
  <path
     style="fill:#bdbdbd;stroke-width:0.06779667"
     d="M 0,10.50849 V 10.1695 H 0.33898334 0.67796668 V 9.4915403 8.8135703 H 1.01695 1.3559334 v -0.33898 -0.33899 H 1.01695 0.67796668 V 4.74577 1.35594 H 4.0678001 7.4576335 V 0.67797 0 h 2.0339 2.0339005 V 4.74577 9.4915403 H 10.508484 9.4915335 V 9.8305203 10.1695 H 9.8305169 10.1695 v 0.33899 0.33898 H 5.0847501 0 Z M 6.7796665,9.8305203 v -0.33898 h 0.677967 0.6779667 v -0.33899 -0.33898 H 5.4237334 2.7118667 v 0.33898 0.33899 H 3.3898334 4.0678001 V 9.8305203 10.1695 H 5.4237334 6.7796665 Z M 9.4915335,4.74577 V 2.0339 h -4.0678001 -4.0678 v 2.71187 2.7118703 h 4.0678 4.0678001 z m -7.4576335,0 v -2.0339 h 3.3898334 3.3898334 v 2.0339 2.0339003 H 5.4237334 2.0339 Z M 10.847467,1.69492 V 1.35594 H 10.508484 10.1695 V 1.69492 2.0339 h 0.338984 0.338983 z"
     id="path5629"
     inkscape:connector-curvature="0" />
</svg>
