<?xml version="1.0" encoding="UTF-8" standalone="no"?>
<svg
   xmlns:dc="http://purl.org/dc/elements/1.1/"
   xmlns:cc="http://creativecommons.org/ns#"
   xmlns:rdf="http://www.w3.org/1999/02/22-rdf-syntax-ns#"
   xmlns:svg="http://www.w3.org/2000/svg"
   xmlns="http://www.w3.org/2000/svg"
   xmlns:sodipodi="http://sodipodi.sourceforge.net/DTD/sodipodi-0.dtd"
   xmlns:inkscape="http://www.inkscape.org/namespaces/inkscape"
   viewBox="0 0 18 15"
   height="15"
   width="18"
   id="svg2"
   version="1.1"
   sodipodi:docname="2_blue.svg"
   inkscape:version="0.92.1 r15371">
  <sodipodi:namedview
     pagecolor="#ffffff"
     bordercolor="#666666"
     borderopacity="1"
     objecttolerance="10"
     gridtolerance="10"
     guidetolerance="10"
     inkscape:pageopacity="0"
     inkscape:pageshadow="2"
     inkscape:window-width="1459"
     inkscape:window-height="688"
     id="namedview13"
     showgrid="false"
     fit-margin-top="0"
     fit-margin-left="0"
     fit-margin-right="0"
     fit-margin-bottom="0"
     inkscape:zoom="15.746288"
     inkscape:cx="8.9925957"
     inkscape:cy="7.4938298"
     inkscape:window-x="0"
     inkscape:window-y="0"
     inkscape:window-maximized="0"
     inkscape:current-layer="svg2" />
  <metadata
     id="metadata8">
    <rdf:RDF>
      <cc:Work
         rdf:about="">
        <dc:format>image/svg+xml</dc:format>
        <dc:type
           rdf:resource="http://purl.org/dc/dcmitype/StillImage" />
        <dc:title></dc:title>
      </cc:Work>
    </rdf:RDF>
  </metadata>
  <defs
     id="defs6" />
  <g
     transform="matrix(0.09991773,0,0,0.09991773,0,0.01234055)"
     id="g4489">
    <path
       id="path4503"
       d="m 30,75 v -5 h 5 5 v 5 5 H 35 30 Z M 60,45 v -5 h 15 15 v 5 5 H 75 60 Z m 40,0 v -5 h 15 15 v 5 5 h -15 -15 z m 40,0 v -5 h 15 15 v 5 5 h -15 -15 z"
       style="fill:#fafcfd"
       inkscape:connector-curvature="0" />
    <path
       id="path4501"
       d="m 10,135 v -5 h 5 5 v 5 5 H 15 10 Z M 10,15 v -5 h 5 5 v 5 5 h -5 -5 z"
       style="fill:#f8fafc"
       inkscape:connector-curvature="0" />
    <path
       id="path4499"
       d="m 10,95 v -5 h 5 5 v 5 5 H 15 10 Z M 90,15 v -5 h 5 5 v 5 5 h -5 -5 z"
       style="fill:#f5f8fa"
       inkscape:connector-curvature="0" />
    <path
       id="path4497"
       d="M 0,75 V 0 h 90 90 v 75 75 H 90 0 Z m 170,0 V 10 H 90 10 v 65 65 h 80 80 z"
       style="fill:#c8c9cb"
       inkscape:connector-curvature="0" />
    <path
       id="path4495"
       d="m 20,35 v -5 h 5 5 v 5 5 h -5 -5 z"
       style="fill:#5b98cd"
       inkscape:connector-curvature="0" />
    <path
       id="path4493"
       d="m 160,115 v -5 h 5 5 v 5 5 h -5 -5 z M 80,35 v -5 h 10 10 v 5 5 H 90 80 Z"
       style="fill:#5997cc"
       inkscape:connector-curvature="0" />
    <path
       id="path4491"
       d="m 20,135 v -5 h 15 15 v 5 5 H 35 20 Z m 40,0 v -5 h 15 15 v 5 5 H 75 60 Z m 40,0 v -5 h 15 15 v 5 5 h -15 -15 z m 40,0 v -5 h 15 15 v 5 5 H 155 140 Z M 10,115 v -5 h 10 10 v 5 5 H 20 10 Z m 30,0 v -5 h 15 15 v 5 5 H 55 40 Z m 40,0 v -5 h 15 15 v 5 5 H 95 80 Z m 40,0 v -5 h 15 15 v 5 5 H 135 120 Z M 20,95 v -5 h 15 15 v 5 5 H 35 20 Z m 40,0 v -5 h 15 15 v 5 5 H 75 60 Z m 40,0 v -5 h 15 15 v 5 5 h -15 -15 z m 40,0 v -5 h 15 15 v 5 5 H 155 140 Z M 10,75 v -5 h 10 10 v 5 5 H 20 10 Z m 30,0 v -5 h 15 15 v 5 5 H 55 40 Z m 40,0 v -5 h 15 15 v 5 5 H 95 80 Z m 40,0 v -5 h 15 15 v 5 5 h -15 -15 z m 40,0 v -5 h 5 5 v 5 5 h -5 -5 z M 20,55 v -5 h 15 15 v 5 5 H 35 20 Z m 40,0 v -5 h 15 15 v 5 5 H 75 60 Z m 40,0 v -5 h 15 15 v 5 5 h -15 -15 z m 40,0 v -5 h 15 15 v 5 5 H 155 140 Z M 10,35 v -5 h 5 5 v 5 5 h -5 -5 z m 30,0 v -5 h 15 15 v 5 5 H 55 40 Z m 60,0 v -5 h 5 5 v 5 5 h -5 -5 z m 20,0 v -5 h 15 15 v 5 5 h -15 -15 z m 40,0 v -5 h 5 5 v 5 5 h -5 -5 z M 20,15 v -5 h 15 15 v 5 5 H 35 20 Z m 40,0 v -5 h 15 15 v 5 5 H 75 60 Z m 40,0 v -5 h 15 15 v 5 5 h -15 -15 z m 40,0 v -5 h 15 15 v 5 5 h -15 -15 z"
       style="fill:#5695cc"
       inkscape:connector-curvature="0" />
  </g>
</svg>
