<?xml version="1.0" encoding="UTF-8" standalone="no"?>
<svg
   xmlns:dc="http://purl.org/dc/elements/1.1/"
   xmlns:cc="http://creativecommons.org/ns#"
   xmlns:rdf="http://www.w3.org/1999/02/22-rdf-syntax-ns#"
   xmlns:svg="http://www.w3.org/2000/svg"
   xmlns="http://www.w3.org/2000/svg"
   viewBox="0 0 18 15"
   height="15"
   width="18"
   id="svg2"
   version="1.1">
  <metadata
     id="metadata8">
    <rdf:RDF>
      <cc:Work
         rdf:about="">
        <dc:format>image/svg+xml</dc:format>
        <dc:type
           rdf:resource="http://purl.org/dc/dcmitype/StillImage" />
        <dc:title></dc:title>
      </cc:Work>
    </rdf:RDF>
  </metadata>
  <defs
     id="defs6" />
  <g
     transform="scale(0.1)"
     id="g4487">
    <path
       id="path4499"
       d="m 30,75 v -5 h 5 5 v 5 5 H 35 30 Z M 60,45 v -5 h 15 15 v 5 5 H 75 60 Z m 40,0 v -5 h 15 15 v 5 5 h -15 -15 z m 40,0 v -5 h 15 15 v 5 5 h -15 -15 z"
       style="fill:#fafcfd" />
    <path
       id="path4497"
       d="m 10,135 v -5 h 5 5 v 5 5 H 15 10 Z M 10,15 v -5 l 4.75,6.98e-4 4.75,6.98e-4 0.07304,4.999302 L 19.646086,20 H 14.823043 10 Z"
       style="fill:#f8fafc" />
    <path
       id="path4495"
       d="m 10,95 v -5 h 5 5 v 5 5 H 15 10 Z M 90,15 v -5 h 5 5 v 5 5 h -5 -5 z"
       style="fill:#f5f8fa" />
    <path
       id="path4493"
       d="m 19.078947,14.416667 c 0.04798,-1.164943 0.284941,-1.4019 0.604167,-0.604167 0.288871,0.721875 0.253344,1.584375 -0.07895,1.916667 -0.332292,0.332291 -0.568641,-0.258334 -0.52522,-1.3125 z m 31,0 c 0.04798,-1.164943 0.284941,-1.4019 0.604167,-0.604167 0.288871,0.721875 0.253344,1.584375 -0.07895,1.916667 -0.332292,0.332291 -0.568641,-0.258334 -0.52522,-1.3125 z"
       style="fill:#f1cdce" />
    <path
       id="path4491"
       d="M 0,75 V 0 h 90 90 v 75 75 H 90 0 Z m 170,0 V 10 H 90 10 v 65 65 h 80 80 z"
       style="fill:#c8c9cb" />
    <path
       id="path4489"
       d="m 20,135 v -5 h 15 15 v 5 5 H 35 20 Z m 40,0 v -5 h 15 15 v 5 5 H 75 60 Z m 40,0 v -5 h 15 15 v 5 5 h -15 -15 z m 40,0 v -5 h 15 15 v 5 5 H 155 140 Z M 10,115 v -5 h 10 10 v 5 5 H 20 10 Z m 30,0 v -5 h 15 15 v 5 5 H 55 40 Z m 40,0 v -5 h 15 15 v 5 5 H 95 80 Z m 40,0 v -5 h 15 15 v 5 5 h -15 -15 z m 40,0 v -5 h 5 5 v 5 5 h -5 -5 z M 20,95 v -5 h 15 15 v 5 5 H 35 20 Z m 40,0 v -5 h 15 15 v 5 5 H 75 60 Z m 40,0 v -5 h 15 15 v 5 5 h -15 -15 z m 40,0 v -5 h 15 15 v 5 5 H 155 140 Z M 10,75 v -5 h 10 10 v 5 5 H 20 10 Z m 30,0 v -5 h 15 15 v 5 5 H 55 40 Z m 40,0 v -5 h 15 15 v 5 5 H 95 80 Z m 40,0 v -5 h 15 15 v 5 5 h -15 -15 z m 40,0 v -5 h 5 5 v 5 5 h -5 -5 z M 20,55 v -5 h 15 15 v 5 5 H 35 20 Z m 40,0 v -5 h 15 15 v 5 5 H 75 60 Z m 40,0 v -5 h 15 15 v 5 5 h -15 -15 z m 40,0 v -5 h 15 15 v 5 5 H 155 140 Z M 10,35 v -5 h 10 10 v 5 5 H 20 10 Z m 30,0 v -5 h 15 15 v 5 5 H 55 40 Z m 40,0 v -5 h 15 15 v 5 5 H 95 80 Z m 40,0 v -5 h 15 15 v 5 5 h -15 -15 z m 40,0 v -5 h 5 5 v 5 5 h -5 -5 z M 20,15 v -5 h 15 15 v 5 5 H 35 20 Z m 40,0 v -5 h 15 15 v 5 5 H 75 60 Z m 40,0 v -5 h 15 15 v 5 5 h -15 -15 z m 40,0 v -5 h 15 15 v 5 5 h -15 -15 z"
       style="fill:#528035" />
  </g>
</svg>
