<?xml version="1.0" encoding="UTF-8" standalone="no"?>
<svg
   xmlns:dc="http://purl.org/dc/elements/1.1/"
   xmlns:cc="http://creativecommons.org/ns#"
   xmlns:rdf="http://www.w3.org/1999/02/22-rdf-syntax-ns#"
   xmlns:svg="http://www.w3.org/2000/svg"
   xmlns="http://www.w3.org/2000/svg"
   viewBox="0 0 17 16"
   height="16"
   width="17"
   id="svg2"
   version="1.1">
  <metadata
     id="metadata8">
    <rdf:RDF>
      <cc:Work
         rdf:about="">
        <dc:format>image/svg+xml</dc:format>
        <dc:type
           rdf:resource="http://purl.org/dc/dcmitype/StillImage" />
        <dc:title></dc:title>
      </cc:Work>
    </rdf:RDF>
  </metadata>
  <defs
     id="defs6" />
  <g
     transform="scale(0.1)"
     id="g4487">
    <path
       id="path4499"
       d="m 60,145 v -5 H 50 40 v -5 -5 h 40 40 v 5 5 h -10 -10 v 5 5 H 80 60 Z M 20,70 V 30 h 60 60 v 40 40 H 80 20 Z m 110,0 V 40 H 80 30 v 30 30 h 50 50 z m 21,-45 v -4 h 4 4 v 4 4 h -4 -4 z"
       style="fill:#fefefe" />
    <path
       id="path4497"
       d="m 150,25 v -5 h 5 5 v 5 5 h -5 -5 z m 9,0 v -4 h -4 -4 v 4 4 h 4 4 z"
       style="fill:#f1f5ef" />
    <path
       id="path4495"
       d="m 20,115 v -5 h 5 5 v 5 5 h -5 -5 z"
       style="fill:#56823a" />
    <path
       id="path4493"
       d="m 30,135 v -5 h 5 5 v 5 5 h -5 -5 z"
       style="fill:#558239" />
    <path
       id="path4491"
       d="m 40,125 v -5 h -5 -5 v -5 -5 h 5 5 v 5 5 h 5 5 v 5 5 H 45 40 Z M 140,65 V 30 h 10 10 v 5 5 h -5 -5 v 30 30 h -5 -5 z"
       style="fill:#528036" />
    <path
       id="path4489"
       d="m 0,155 v -5 h 5 5 v -10 -10 h 5 5 v -5 -5 H 15 10 V 70 20 h 50 50 V 10 0 h 30 30 v 70 70 h -15 -15 v 5 5 h 5 5 v 5 5 H 75 0 Z m 100,-10 v -5 h 10 10 v -5 -5 H 85 50 v -5 -5 h -5 -5 v -5 -5 h 50 50 v -5 -5 h 5 5 V 70 40 h 5 5 V 30 20 h -5 -5 v 5 5 H 85 20 v 45 45 h 10 10 v 5 5 h -5 -5 v 5 5 h 15 15 v 5 5 h 20 20 z M 30,70 V 40 h 50 50 v 30 30 H 80 30 Z"
       style="fill:#528035" />
  </g>
</svg>
