<?xml version="1.0" encoding="UTF-8" standalone="no"?>
<svg
   xmlns:dc="http://purl.org/dc/elements/1.1/"
   xmlns:cc="http://creativecommons.org/ns#"
   xmlns:rdf="http://www.w3.org/1999/02/22-rdf-syntax-ns#"
   xmlns:svg="http://www.w3.org/2000/svg"
   xmlns="http://www.w3.org/2000/svg"
   viewBox="0 0 36.84919 32.865494"
   height="32.865494"
   width="36.84919"
   id="svg2"
   version="1.1">
  <metadata
     id="metadata8">
    <rdf:RDF>
      <cc:Work
         rdf:about="">
        <dc:format>image/svg+xml</dc:format>
        <dc:type
           rdf:resource="http://purl.org/dc/dcmitype/StillImage" />
        <dc:title></dc:title>
      </cc:Work>
    </rdf:RDF>
  </metadata>
  <defs
     id="defs6" />
  <g
     transform="matrix(0.0995924,0,0,0.0995924,0,-0.995924)"
     id="g4487">
    <path
       id="path4493"
       d="m 0,335 v -5 h 150 150 v -5 -5 h -5 -5 v -5 -5 h -5 -5 v -5 -5 h -5 -5 v -5 -5 h -5 -5 v -5 -5 H 150 40 v 5 5 h -5 -5 v 5 5 h -5 -5 v 5 5 h -5 -5 v 5 5 H 5 0 v -5 -5 h 5 5 v -10 -10 h 5 5 v -5 -5 h 5 5 v -5 -5 h 70 70 V 260 250 H 85 0 V 150 50 H 120 240 V 30 10 h 65 65 v 145 145 h -40 -40 v 5 5 h 5 5 v 5 5 h 5 5 v 10 10 H 155 0 Z M 360,175 V 60 h -5 -5 v -5 -5 h 5 5 V 35 20 h -55 -55 v 15 15 h 30 30 v 100 100 h -65 -65 v 10 10 h 45 45 v 5 5 h 5 5 v 5 5 h 40 40 z M 300,150 V 60 H 155 10 v 90 90 H 155 300 Z M 40,315 v -5 h 5 5 v 5 5 h -5 -5 z m 20,0 v -5 h 5 5 v 5 5 h -5 -5 z m 130,0 v -5 h 10 10 v 5 5 h -10 -10 z m 60,0 v -5 h 5 5 v 5 5 h -5 -5 z"
       style="fill:#86aac9" />
    <path
       id="path4491"
       d="m 30,315 v -5 h 5 5 v 5 5 h -5 -5 z m 50,0 v -5 h 10 10 v 5 5 H 90 80 Z m 130,0 v -5 h -5 -5 v -5 -5 h -5 -5 v 5 5 h -5 -5 v -5 -5 h 5 5 v -5 -5 h 5 5 v 5 5 h 5 5 v 5 5 h 5 5 v -5 -5 h 5 5 v 5 5 h 5 5 v -5 -5 h 5 5 v 5 5 h -5 -5 v 5 5 h -15 -15 z m 50,0 v -5 h 5 5 v 5 5 h -5 -5 z M 60,295 v -5 h 5 5 v 5 5 h -5 -5 z m 20,0 v -5 h 5 5 v 5 5 h -5 -5 z m 20,0 v -5 h 5 5 v 5 5 h -5 -5 z m 40,0 v -5 h 5 5 v 5 5 h -5 -5 z M 30,215 v -5 h 5 5 v 5 5 H 35 30 Z M 310,55 v -5 h 5 5 v 5 5 h -5 -5 z m 20,-30 v -5 h 5 5 v 5 5 h -5 -5 z"
       style="fill:#6ba5d6" />
    <path
       id="path4489"
       d="m 0,325 v -5 h 5 5 v -5 -5 h 5 5 v -5 -5 h 5 5 v -5 -5 h 5 5 v -5 -5 h 110 110 v 5 5 h 5 5 v 5 5 h 5 5 v 5 5 h 5 5 v 5 5 h 5 5 v 5 5 h -50 -50 v -5 -5 h 20 20 v -5 -5 h 5 5 v 5 5 h 10 10 v -5 -5 h -5 -5 v -5 -5 h -5 -5 v -5 -5 h -5 -5 v 5 5 h -5 -5 v -5 -5 h -5 -5 v 5 5 h -5 -5 v -5 -5 h -20 -20 v 10 10 h -5 -5 v -10 -10 h -15 -15 v 10 10 h -5 -5 V 300 290 H 85 50 v 5 5 h 5 5 v 10 10 h 5 5 v -10 -10 h 5 5 v 10 10 h 10 10 v 5 5 H 50 0 Z m 50,-15 v -10 h -5 -5 v 5 5 h -5 -5 v 5 5 h 10 10 z m 50,-5 v -5 h 5 5 v 5 5 h -5 -5 z m 40,0 v -5 h 5 5 v 5 5 h -5 -5 z m 140,-20 v -5 h -5 -5 v -5 -5 h -10 -10 v -10 -10 h 30 30 V 155 60 h 25 25 V 175 290 H 320 280 Z M 130,260 v -10 h 20 20 v 10 10 H 150 130 Z M 10,150 V 60 h 145 145 v 90 90 H 155 10 Z m 280,0 V 70 H 155 20 v 80 80 H 155 290 Z M 40,215 v -5 H 35 30 V 145 80 h 125 125 v 70 70 H 160 40 Z M 250,35 V 20 h 40 40 v 5 5 h -5 -5 v 5 5 h 15 15 v -5 -5 h -5 -5 v -5 -5 h 10 10 v 15 15 h -55 -55 z"
       style="fill:#5899d2" />
  </g>
</svg>
